# xmcd
#
# Track frame offsets:
# 150
# 18725
# 36632
# 50871
# 65153
# 77440
# 93438
# 108946
# 123721
# 136944
# 147781
# 164281
# 180931
# 201331
# 220981
# 237181
# 254881
# 272881
# 289081
# 309631
#
# Disc length: 4380 seconds
#
#
# Revision: 0
# Processed by: cddbd v1.5.2PL0 Copyright (c) Steve Scherf et al.
# Submitted via: FreeRIP 2.942 
#
DISCID=3c111a14
DTITLE=Jim Wallace and Sons - Old Stones
DYEAR=1900
DGENRE=Country
TTITLE0=Old Stones
TTITLE1=Oklahoma
TTITLE2=Wild Mountain Thyme
TTITLE3=Scottish Medley
TTITLE4=I Ain't Going Nowhere Blues
TTITLE5=Slow Never Ending Dance
TTITLE6=Old Country Waltz
TTITLE7=Seems Like Yesterday
TTITLE8=Going Home
TTITLE9=Sweet Country Heaven
TTITLE10=Valerie
TTITLE11=Bonnie Dundee
TTITLE12=Lovin Chains
TTITLE13='63'73
TTITLE14=Send That Old Heartache Away
TTITLE15=Too Little Too Late
TTITLE16=Beautiful Persuasion
TTITLE17=Tangihua Mountain Lady
TTITLE18=Rock'n'Roll Was Her Name
TTITLE19=Anthem
EXTD=
EXTT0=
EXTT1=
EXTT2=
EXTT3=
EXTT4=
EXTT5=
EXTT6=
EXTT7=
EXTT8=
EXTT9=
EXTT10=
EXTT11=
EXTT12=
EXTT13=
EXTT14=
EXTT15=
EXTT16=
EXTT17=
EXTT18=
EXTT19=
PLAYORDER=
